<mxfile host="Electron" agent="Mozilla/5.0 (Windows NT 10.0; Win64; x64) AppleWebKit/537.36 (KHTML, like Gecko) draw.io/25.0.2 Chrome/128.0.6613.186 Electron/32.2.5 Safari/537.36" version="25.0.2">
  <diagram id="gq6A5Rjs0dztZXg1Bogt" name="Страница 1">
    <mxGraphModel dx="1050" dy="629" grid="1" gridSize="10" guides="1" tooltips="1" connect="1" arrows="1" fold="1" page="1" pageScale="1" pageWidth="827" pageHeight="1169" math="0" shadow="0">
      <root>
        <mxCell id="0" />
        <mxCell id="1" parent="0" />
        <mxCell id="-2SmfkrlVK5AtwkvcMNj-1" value="q1" style="ellipse;whiteSpace=wrap;html=1;aspect=fixed;" parent="1" vertex="1">
          <mxGeometry x="120" y="200" width="80" height="80" as="geometry" />
        </mxCell>
        <mxCell id="-2SmfkrlVK5AtwkvcMNj-3" value="q2" style="ellipse;whiteSpace=wrap;html=1;aspect=fixed;" parent="1" vertex="1">
          <mxGeometry x="240" y="200" width="80" height="80" as="geometry" />
        </mxCell>
        <mxCell id="-2SmfkrlVK5AtwkvcMNj-4" value="q3" style="ellipse;whiteSpace=wrap;html=1;aspect=fixed;" parent="1" vertex="1">
          <mxGeometry x="360" y="200" width="80" height="80" as="geometry" />
        </mxCell>
        <mxCell id="-2SmfkrlVK5AtwkvcMNj-5" value="q4" style="ellipse;whiteSpace=wrap;html=1;aspect=fixed;" parent="1" vertex="1">
          <mxGeometry x="480" y="200" width="80" height="80" as="geometry" />
        </mxCell>
        <mxCell id="-2SmfkrlVK5AtwkvcMNj-6" value="" style="endArrow=classic;html=1;curved=1;exitX=0.5;exitY=0;exitDx=0;exitDy=0;entryX=0.5;entryY=0;entryDx=0;entryDy=0;" parent="1" source="-2SmfkrlVK5AtwkvcMNj-1" target="-2SmfkrlVK5AtwkvcMNj-3" edge="1">
          <mxGeometry width="50" height="50" relative="1" as="geometry">
            <mxPoint x="130" y="370" as="sourcePoint" />
            <mxPoint x="180" y="320" as="targetPoint" />
            <Array as="points">
              <mxPoint x="220" y="130" />
            </Array>
          </mxGeometry>
        </mxCell>
        <mxCell id="-2SmfkrlVK5AtwkvcMNj-8" value="" style="endArrow=classic;html=1;curved=1;entryX=0.5;entryY=1;entryDx=0;entryDy=0;" parent="1" edge="1">
          <mxGeometry width="50" height="50" relative="1" as="geometry">
            <mxPoint x="520" y="360" as="sourcePoint" />
            <mxPoint x="520" y="280" as="targetPoint" />
            <Array as="points">
              <mxPoint x="560" y="330" />
            </Array>
          </mxGeometry>
        </mxCell>
        <mxCell id="-2SmfkrlVK5AtwkvcMNj-9" value="" style="endArrow=none;html=1;curved=1;exitX=0.5;exitY=1;exitDx=0;exitDy=0;" parent="1" edge="1">
          <mxGeometry width="50" height="50" relative="1" as="geometry">
            <mxPoint x="520" y="280" as="sourcePoint" />
            <mxPoint x="520" y="360" as="targetPoint" />
            <Array as="points">
              <mxPoint x="480" y="320" />
            </Array>
          </mxGeometry>
        </mxCell>
        <mxCell id="-2SmfkrlVK5AtwkvcMNj-11" value="" style="endArrow=classic;html=1;curved=1;entryX=0.5;entryY=1;entryDx=0;entryDy=0;" parent="1" edge="1">
          <mxGeometry width="50" height="50" relative="1" as="geometry">
            <mxPoint x="400" y="360" as="sourcePoint" />
            <mxPoint x="400" y="280" as="targetPoint" />
            <Array as="points">
              <mxPoint x="440" y="320" />
            </Array>
          </mxGeometry>
        </mxCell>
        <mxCell id="-2SmfkrlVK5AtwkvcMNj-12" value="" style="endArrow=none;html=1;curved=1;exitX=0.5;exitY=1;exitDx=0;exitDy=0;" parent="1" edge="1">
          <mxGeometry width="50" height="50" relative="1" as="geometry">
            <mxPoint x="400" y="280" as="sourcePoint" />
            <mxPoint x="400" y="360" as="targetPoint" />
            <Array as="points">
              <mxPoint x="360" y="320" />
            </Array>
          </mxGeometry>
        </mxCell>
        <mxCell id="cJ3WRnElRIpatEXSCdqQ-1" value="q0" style="ellipse;whiteSpace=wrap;html=1;aspect=fixed;" parent="1" vertex="1">
          <mxGeometry y="200" width="80" height="80" as="geometry" />
        </mxCell>
        <mxCell id="cJ3WRnElRIpatEXSCdqQ-2" value="" style="endArrow=classic;html=1;curved=1;exitX=0.5;exitY=0;exitDx=0;exitDy=0;entryX=0.5;entryY=0;entryDx=0;entryDy=0;" parent="1" edge="1">
          <mxGeometry width="50" height="50" relative="1" as="geometry">
            <mxPoint x="40" y="200" as="sourcePoint" />
            <mxPoint x="160" y="200" as="targetPoint" />
            <Array as="points">
              <mxPoint x="100" y="130" />
            </Array>
          </mxGeometry>
        </mxCell>
        <mxCell id="cJ3WRnElRIpatEXSCdqQ-3" value="" style="endArrow=classic;html=1;curved=1;exitX=0.5;exitY=0;exitDx=0;exitDy=0;entryX=0.5;entryY=0;entryDx=0;entryDy=0;" parent="1" edge="1">
          <mxGeometry width="50" height="50" relative="1" as="geometry">
            <mxPoint x="280" y="200" as="sourcePoint" />
            <mxPoint x="400" y="200" as="targetPoint" />
            <Array as="points">
              <mxPoint x="340" y="130" />
            </Array>
          </mxGeometry>
        </mxCell>
        <mxCell id="cJ3WRnElRIpatEXSCdqQ-4" value="" style="endArrow=classic;html=1;rounded=0;exitX=0.5;exitY=1;exitDx=0;exitDy=0;entryX=0.5;entryY=1;entryDx=0;entryDy=0;curved=1;" parent="1" source="-2SmfkrlVK5AtwkvcMNj-3" target="-2SmfkrlVK5AtwkvcMNj-4" edge="1">
          <mxGeometry width="50" height="50" relative="1" as="geometry">
            <mxPoint x="390" y="350" as="sourcePoint" />
            <mxPoint x="440" y="300" as="targetPoint" />
            <Array as="points">
              <mxPoint x="330" y="350" />
            </Array>
          </mxGeometry>
        </mxCell>
        <mxCell id="cJ3WRnElRIpatEXSCdqQ-7" value="" style="endArrow=classic;html=1;curved=1;entryX=0.5;entryY=1;entryDx=0;entryDy=0;" parent="1" edge="1">
          <mxGeometry width="50" height="50" relative="1" as="geometry">
            <mxPoint x="520" y="120" as="sourcePoint" />
            <mxPoint x="520" y="200" as="targetPoint" />
            <Array as="points">
              <mxPoint x="560" y="170" />
            </Array>
          </mxGeometry>
        </mxCell>
        <mxCell id="cJ3WRnElRIpatEXSCdqQ-8" value="" style="endArrow=none;html=1;curved=1;exitX=0.5;exitY=1;exitDx=0;exitDy=0;" parent="1" edge="1">
          <mxGeometry width="50" height="50" relative="1" as="geometry">
            <mxPoint x="520" y="120" as="sourcePoint" />
            <mxPoint x="520" y="200" as="targetPoint" />
            <Array as="points">
              <mxPoint x="480" y="160" />
            </Array>
          </mxGeometry>
        </mxCell>
        <mxCell id="cJ3WRnElRIpatEXSCdqQ-9" value="" style="endArrow=classic;html=1;curved=1;exitX=0.5;exitY=0;exitDx=0;exitDy=0;entryX=0.5;entryY=0;entryDx=0;entryDy=0;" parent="1" edge="1">
          <mxGeometry width="50" height="50" relative="1" as="geometry">
            <mxPoint x="400" y="200" as="sourcePoint" />
            <mxPoint x="520" y="200" as="targetPoint" />
            <Array as="points">
              <mxPoint x="460" y="130" />
            </Array>
          </mxGeometry>
        </mxCell>
        <mxCell id="cJ3WRnElRIpatEXSCdqQ-10" value="n/0" style="text;html=1;align=center;verticalAlign=middle;resizable=0;points=[];autosize=1;strokeColor=none;fillColor=none;" parent="1" vertex="1">
          <mxGeometry x="80" y="138" width="40" height="30" as="geometry" />
        </mxCell>
        <mxCell id="cJ3WRnElRIpatEXSCdqQ-11" value="m/0" style="text;html=1;align=center;verticalAlign=middle;resizable=0;points=[];autosize=1;strokeColor=none;fillColor=none;" parent="1" vertex="1">
          <mxGeometry x="200" y="138" width="40" height="30" as="geometry" />
        </mxCell>
        <mxCell id="cJ3WRnElRIpatEXSCdqQ-12" value="c/0" style="text;html=1;align=center;verticalAlign=middle;resizable=0;points=[];autosize=1;strokeColor=none;fillColor=none;" parent="1" vertex="1">
          <mxGeometry x="320" y="138" width="40" height="30" as="geometry" />
        </mxCell>
        <mxCell id="cJ3WRnElRIpatEXSCdqQ-13" value="k/0" style="text;html=1;align=center;verticalAlign=middle;resizable=0;points=[];autosize=1;strokeColor=none;fillColor=none;" parent="1" vertex="1">
          <mxGeometry x="380" y="358" width="40" height="30" as="geometry" />
        </mxCell>
        <mxCell id="cJ3WRnElRIpatEXSCdqQ-14" value="n/1" style="text;html=1;align=center;verticalAlign=middle;resizable=0;points=[];autosize=1;strokeColor=none;fillColor=none;" parent="1" vertex="1">
          <mxGeometry x="435" y="138" width="40" height="30" as="geometry" />
        </mxCell>
        <mxCell id="cJ3WRnElRIpatEXSCdqQ-15" value="n/1" style="text;html=1;align=center;verticalAlign=middle;resizable=0;points=[];autosize=1;strokeColor=none;fillColor=none;" parent="1" vertex="1">
          <mxGeometry x="500" y="358" width="40" height="30" as="geometry" />
        </mxCell>
        <mxCell id="cJ3WRnElRIpatEXSCdqQ-16" value="m/1" style="text;html=1;align=center;verticalAlign=middle;resizable=0;points=[];autosize=1;strokeColor=none;fillColor=none;" parent="1" vertex="1">
          <mxGeometry x="500" y="98" width="40" height="30" as="geometry" />
        </mxCell>
        <mxCell id="ESrNfALh_2iGbUjrTiA7-1" value="d/0" style="text;html=1;align=center;verticalAlign=middle;resizable=0;points=[];autosize=1;strokeColor=none;fillColor=none;" vertex="1" parent="1">
          <mxGeometry x="320" y="310" width="40" height="30" as="geometry" />
        </mxCell>
      </root>
    </mxGraphModel>
  </diagram>
</mxfile>
